<svg id="Capa_1" data-name="Capa 1" xmlns="http://www.w3.org/2000/svg" viewBox="0 0 406.55 130.07"><defs><style>.cls-1{fill:#f39d20;}.cls-2{fill:#f0c418;}.cls-3{fill:#e74c3d;}.cls-4{fill:#ecf0f1;}.cls-5{fill:#557680;}.cls-6{fill:#364a5e;}.cls-7{fill:#d1d4d2;}.cls-8{fill:#95a5a5;}.cls-9{font-size:66.48px;fill:#fff;font-family:BebasNeueRegular, Bebas Neue;}.cls-10{letter-spacing:-0.02em;}.cls-11{letter-spacing:0em;}.cls-12{letter-spacing:-0.04em;}.cls-13{letter-spacing:0em;}.cls-14{fill:#58bbe6;}.cls-15{fill:#35aad2;}.cls-16{fill:#7c5538;}.cls-17{fill:#8f5f3e;}.cls-18{fill:#ea4d53;}.cls-19{fill:#ea5264;}.cls-20{fill:#603e26;}.cls-21{fill:#e62b39;}.cls-22{fill:#f49834;}.cls-23{fill:#fbc273;}.cls-24{fill:#fcca8d;}.cls-25{fill:#f7ad52;}.cls-26{fill:#bad8e7;}.cls-27{fill:#92c5db;}.cls-28{fill:#48b8a8;}.cls-29{fill:#fdc956;}.cls-30{fill:#831813;}</style></defs><g id="_086---Desktop-Calendar" data-name="086---Desktop-Calendar"><path id="Shape" class="cls-1" d="M57,56.91h4.5a1.95,1.95,0,0,0,1.92-2.2l-5.5-38.25Z" transform="translate(-10.13 61.67)"/><rect id="Rectangle-path" class="cls-2" y="71.7" width="47.79" height="49.63" rx="2.76"/><path id="Shape-2" data-name="Shape" class="cls-3" d="M54.25,15.55v5.51H13.81V15.55a1.83,1.83,0,0,1,1.83-1.84H52.41A1.85,1.85,0,0,1,54.25,15.55Z" transform="translate(-10.13 61.67)"/><path id="Shape-3" data-name="Shape" class="cls-4" d="M54.25,21.06V48.79a1.86,1.86,0,0,1-.55,1.31l-5.35,5.34a1.82,1.82,0,0,1-1.3.55H15.64a1.85,1.85,0,0,1-1.83-1.84V21.06Z" transform="translate(-10.13 61.67)"/><path id="Shape-4" data-name="Shape" class="cls-5" d="M44.72,31.47a2.65,2.65,0,0,0,2.65-2.65V25.28a2.65,2.65,0,0,0-5.3,0v3.54A2.65,2.65,0,0,0,44.72,31.47ZM43,25.28a1.77,1.77,0,0,1,3.54,0v3.54a1.77,1.77,0,0,1-3.54,0Z" transform="translate(-10.13 61.67)"/><path id="Shape-5" data-name="Shape" class="cls-5" d="M49.58,30.58a.45.45,0,0,0,0,.89h3.54a.45.45,0,0,0,0-.89H51.79V23.07a.45.45,0,0,0-.27-.41.45.45,0,0,0-.48.1l-1.77,1.77a.44.44,0,1,0,.62.62l1-1v6.44Z" transform="translate(-10.13 61.67)"/><path id="Shape-6" data-name="Shape" class="cls-6" d="M44.14,48.63H23a.92.92,0,0,0,0,1.84H44.14a.92.92,0,0,0,0-1.84Z" transform="translate(-10.13 61.67)"/><path id="Shape-7" data-name="Shape" class="cls-7" d="M54.08,49.55a1.87,1.87,0,0,1-.38.55l-5.35,5.34a1.71,1.71,0,0,1-.54.38V51.39a1.86,1.86,0,0,1,1.84-1.84Z" transform="translate(-10.13 61.67)"/><path id="Shape-8" data-name="Shape" class="cls-8" d="M31.87,10H30a4.59,4.59,0,1,0-4.2,6.43.92.92,0,0,1,0,1.84,6.43,6.43,0,1,1,6.07-8.57.61.61,0,0,1,.05.3Z" transform="translate(-10.13 61.67)"/><path id="Shape-9" data-name="Shape" class="cls-8" d="M49.34,10H47.42a4.6,4.6,0,1,0-4.2,6.43.92.92,0,0,1,0,1.84,6.43,6.43,0,1,1,6.06-8.57A.77.77,0,0,1,49.34,10Z" transform="translate(-10.13 61.67)"/></g><text x="-10.13" y="61.67"/><text class="cls-9" transform="translate(64.79 118.17)">s<tspan class="cls-10" x="24.73" y="0">a</tspan><tspan x="51.12" y="0">ve the B-</tspan><tspan class="cls-11" x="242.11" y="0">d</tspan><tspan class="cls-12" x="268.37" y="0">a</tspan><tspan class="cls-13" x="293.9" y="0">te</tspan></text><polyline class="cls-14" points="16.83 102.94 18.13 104.13 29.67 104.13 30.96 102.94"/><polygon class="cls-15" points="16.83 102.94 18.13 104.13 19.05 104.13 17.76 102.94 16.83 102.94"/><path class="cls-14" d="M34.42,29.54c-.55-.16-1.2,0-1.2.54v1.11h1.62V30.08A.55.55,0,0,0,34.42,29.54Z" transform="translate(-10.13 61.67)"/><path class="cls-15" d="M34.49,29.57c-.43-.2-1.27-.1-1.27.51v1.11h.92V30.08A.53.53,0,0,1,34.49,29.57Z" transform="translate(-10.13 61.67)"/><path class="cls-16" d="M38.52,33.93V32.71a.58.58,0,0,0-.57-.58H30.1a.58.58,0,0,0-.57.58V36.1h9V34.73" transform="translate(-10.13 61.67)"/><path class="cls-17" d="M38,32.13H34.24a7.76,7.76,0,0,0,.82,4h3.46V32.71A.58.58,0,0,0,38,32.13Z" transform="translate(-10.13 61.67)"/><path class="cls-18" d="M36.59,32.13v-.65a.33.33,0,0,0-.33-.33H31.79a.33.33,0,0,0-.33.33v.65Z" transform="translate(-10.13 61.67)"/><path class="cls-19" d="M36.26,31.15h-1.9a8,8,0,0,0-.12,1h2.35v-.65A.33.33,0,0,0,36.26,31.15Z" transform="translate(-10.13 61.67)"/><path class="cls-20" d="M31,32.13H30.1a.58.58,0,0,0-.57.58V36.1h.93V32.71A.57.57,0,0,1,31,32.13Z" transform="translate(-10.13 61.67)"/><path class="cls-21" d="M32.72,31.15h-.93a.33.33,0,0,0-.33.33v.65h.93v-.65A.33.33,0,0,1,32.72,31.15Z" transform="translate(-10.13 61.67)"/><path class="cls-22" d="M34,27.24A.92.92,0,0,0,34,29a.91.91,0,0,0,.59-.86C34.62,27.51,34.09,27.19,34,27.24Z" transform="translate(-10.13 61.67)"/><path class="cls-23" d="M38,32.13H30.1a.59.59,0,0,0-.55.41,2.35,2.35,0,0,0,0,.61l1.07.69a.77.77,0,0,0,.82,0l.73-.48h0a.67.67,0,0,1,.72,0c1.28.83,1,.84,2.31,0a.69.69,0,0,1,.73,0h0l.72.48a.78.78,0,0,0,.83,0l1.06-.69v-.44A.58.58,0,0,0,38,32.13Z" transform="translate(-10.13 61.67)"/><path class="cls-24" d="M38,32.13H34.24a8.15,8.15,0,0,0,.1,1.78s0,0,.84-.54a.69.69,0,0,1,.73,0h0l.72.48a.78.78,0,0,0,.83,0l1.06-.69v-.5A.58.58,0,0,0,38,32.13Z" transform="translate(-10.13 61.67)"/><path class="cls-25" d="M30.46,32.71a.57.57,0,0,1,.57-.58c-.93,0-1,0-1.14,0a.57.57,0,0,0-.36.53v.44l.93.6Z" transform="translate(-10.13 61.67)"/><path class="cls-16" d="M39.92,38.21V36.86a.75.75,0,0,0-.75-.76H28.88a.76.76,0,0,0-.75.76v3.45H39.92V39" transform="translate(-10.13 61.67)"/><path class="cls-17" d="M39.17,36.1H35.06a7.85,7.85,0,0,0,4.86,4V36.86A.75.75,0,0,0,39.17,36.1Z" transform="translate(-10.13 61.67)"/><path class="cls-26" d="M41.14,40.31H26.91a.5.5,0,0,0,0,1H41.14a.5.5,0,0,0,0-1Z" transform="translate(-10.13 61.67)"/><path class="cls-27" d="M41.14,40.81H26.91a.5.5,0,0,1-.43-.25.49.49,0,0,0,.43.74H41.14a.49.49,0,0,0,.49-.49.51.51,0,0,0-.06-.25A.5.5,0,0,1,41.14,40.81Z" transform="translate(-10.13 61.67)"/><path class="cls-20" d="M29.81,36.1h-.93a.76.76,0,0,0-.75.76v3.45h.93V36.86A.75.75,0,0,1,29.81,36.1Z" transform="translate(-10.13 61.67)"/><path class="cls-23" d="M28.13,36.86v.45l1,.63a.76.76,0,0,0,.82,0l.73-.47h0a.67.67,0,0,1,.73,0c1.27.83,1,.83,2.28,0a.69.69,0,0,1,.38-.12.64.64,0,0,1,.37.12h0c.73.47.85.58,1.1.59a.62.62,0,0,0,.38-.1l.8-.52a.67.67,0,0,1,.73,0h0l.73.47a.76.76,0,0,0,.82,0l1-.63v-.45a.75.75,0,0,0-.75-.76H28.88A.76.76,0,0,0,28.13,36.86Z" transform="translate(-10.13 61.67)"/><path class="cls-24" d="M39.17,36.1H35.06a7.81,7.81,0,0,0,1.15,1.68l.47-.31a.67.67,0,0,1,.73,0h0l.73.47a.76.76,0,0,0,.82,0l1-.63v-.45A.75.75,0,0,0,39.17,36.1Z" transform="translate(-10.13 61.67)"/><path class="cls-25" d="M29.06,36.86a.75.75,0,0,1,.75-.76h-.93a.76.76,0,0,0-.75.76v.45l.93.61Z" transform="translate(-10.13 61.67)"/><circle class="cls-28" cx="21.46" cy="96.81" r="0.32"/><circle class="cls-14" cx="24.7" cy="96.29" r="0.32"/><circle class="cls-28" cx="26.88" cy="96.61" r="0.32"/><path class="cls-18" d="M35.29,35.58a.25.25,0,0,1,.12-.33l.45-.21a.25.25,0,0,1,.21.45l-.45.21A.24.24,0,0,1,35.29,35.58Z" transform="translate(-10.13 61.67)"/><path class="cls-29" d="M33,35.26,32.55,35a.24.24,0,0,1-.08-.34.25.25,0,0,1,.34-.08l.42.26a.25.25,0,0,1-.26.42Z" transform="translate(-10.13 61.67)"/><circle class="cls-14" cx="25.86" cy="101.01" r="0.32"/><circle class="cls-28" cx="22.62" cy="100.48" r="0.32"/><circle class="cls-18" cx="20.44" cy="100.81" r="0.32"/><path class="cls-29" d="M32,39.9l-.45-.21a.25.25,0,0,1-.12-.33.24.24,0,0,1,.33-.12l.45.21a.25.25,0,0,1-.21.45Z" transform="translate(-10.13 61.67)"/><path class="cls-14" d="M37.69,39.69l-.45-.21a.25.25,0,1,1,.21-.45l.45.21a.26.26,0,0,1,.12.33A.25.25,0,0,1,37.69,39.69Z" transform="translate(-10.13 61.67)"/><path class="cls-29" d="M34.27,39.38a.24.24,0,0,1,.08-.34l.42-.26a.25.25,0,0,1,.34.08.24.24,0,0,1-.08.34l-.42.26A.24.24,0,0,1,34.27,39.38Z" transform="translate(-10.13 61.67)"/><path class="cls-30" d="M29.84,26.41l.48,1.16c4.67-2.5,9.83-2.46,12.31.65,2.94,3.68,1.07,10-4.22,14.2s-11.84,4.67-14.78,1c-2.48-3.11-1.4-8.15,2.07-12.16l-1-.73c-4.07,4.65-5.19,10.49-2.4,14,3.31,4.15,10.91,3.63,16.88-1.14S47.31,31.28,44,27.14C41.2,23.65,35.26,23.46,29.84,26.41Z" transform="translate(-10.13 61.67)"/><path class="cls-3" d="M29.51,26.64,30,27.81c4.83-2.63,10.1-2.67,12.59.44,2.94,3.67.91,10.08-4.58,14.47S25.8,47.69,22.86,44c-2.49-3.11-1.29-8.24,2.34-12.37l-1-.72c-4.25,4.79-5.5,10.73-2.71,14.22,3.31,4.14,11.1,3.48,17.29-1.47S47.29,31.27,44,27.12C41.19,23.63,35.12,23.55,29.51,26.64Z" transform="translate(-10.13 61.67)"/></svg>